<svg height="512" viewBox="0 0 50 58" width="512" xmlns="http://www.w3.org/2000/svg"><g id="Page-1" fill="none" fill-rule="evenodd"><g id="018---Scissors" fill-rule="nonzero" transform="translate(-1)"><path id="Shape" d="m22.03 30.24-5.34 10.05-1.76-.94c-4.39-2.33-10.05-.27-12.65 4.6-2.6 4.87-1.13 10.73 3.26 13.06s10.05.27 12.64-4.6l7.82-14.71zm-5.51 16.76-1.87 3.53c-1.56 2.92-4.8 4.24-7.24 2.95s-3.15-4.72-1.59-7.65 4.79-4.24 7.23-2.95l2.65 1.41c.9729673.5233953 1.3395744 1.734987.82 2.71z" fill="#14a085"/><path id="Shape" d="m49.72 43.96c-2.59-4.88-8.26-6.94-12.64-4.61l-1.77.94-21.13-39.73c-.2569176-.48864571-.8612131-.67664876-1.35-.42-2.92413027 1.55989584-4.03360197 5.19252091-2.48 8.12l11.68 21.98 3.97 7.46 7.82 14.71c2.6 4.87 8.26 6.93 12.65 4.6s5.84-8.18 3.25-13.05zm-5.13 9.52c-2.44 1.29-5.68-.03-7.23-2.95l-1.88-3.53c-.5195744-.975013-.1529673-2.1866047.82-2.71l2.65-1.41c2.44-1.29 5.68.03 7.24 2.95s.83 6.35-1.6 7.65z" fill="#5d4c72"/><path id="Shape" d="m31.378 24.259-2.828-5.328c-.15609-.2935399-.15609-.6454601 0-.939l9.271-17.43c.2569176-.48864571.8612131-.67664876 1.35-.42 2.9241303 1.55989584 4.033602 5.19252091 2.48 8.12l-8.507 16c-.174131.3262448-.5140948.5297569-.8839014.5291286-.3698066-.0006282-.709077-.2052941-.8820986-.5321286z" fill="#14a085"/></g></g></svg>